<?xml version="1.0" encoding="UTF-8" standalone="no"?>
<!DOCTYPE svg PUBLIC "-//W3C//DTD SVG 1.1//EN"
 "http://www.w3.org/Graphics/SVG/1.1/DTD/svg11.dtd">
<!-- Generated by graphviz version 12.2.1 (0)
 -->
<!-- Pages: 1 -->
<svg width="198pt" height="332pt"
 viewBox="0.00 0.00 197.88 332.00" xmlns="http://www.w3.org/2000/svg" xmlns:xlink="http://www.w3.org/1999/xlink">
<g id="graph0" class="graph" transform="scale(1 1) rotate(0) translate(4 328)">
<polygon fill="white" stroke="none" points="-4,4 -4,-328 193.88,-328 193.88,4 -4,4"/>
<!-- 0 -->
<g id="node1" class="node">
<title>0</title>
<polygon fill="none" stroke="black" points="133.75,-324 57,-324 57,-288 133.75,-288 133.75,-324"/>
<text text-anchor="middle" x="95.38" y="-300.95" font-family="Times New Roman,serif" font-size="14.00">fork 仓库</text>
</g>
<!-- 1 -->
<g id="node2" class="node">
<title>1</title>
<polygon fill="none" stroke="black" points="100.75,-252 0,-252 0,-216 100.75,-216 100.75,-252"/>
<text text-anchor="middle" x="50.38" y="-228.95" font-family="Times New Roman,serif" font-size="14.00">clone 到本地</text>
</g>
<!-- 0&#45;&gt;1 -->
<g id="edge1" class="edge">
<title>0&#45;&gt;1</title>
<path fill="none" stroke="black" d="M84.25,-287.7C79.18,-279.81 73.07,-270.3 67.44,-261.55"/>
<polygon fill="black" stroke="black" points="70.54,-259.9 62.19,-253.38 64.65,-263.68 70.54,-259.9"/>
</g>
<!-- 3 -->
<g id="node4" class="node">
<title>3</title>
<polygon fill="none" stroke="black" points="189.88,-180 104.88,-180 104.88,-144 189.88,-144 189.88,-180"/>
<text text-anchor="middle" x="147.38" y="-155.82" font-family="Times New Roman,serif" font-size="14.00">在线编辑</text>
</g>
<!-- 0&#45;&gt;3 -->
<g id="edge2" class="edge">
<title>0&#45;&gt;3</title>
<path fill="none" stroke="black" d="M101.75,-287.59C110.61,-263.4 126.73,-219.36 137.25,-190.65"/>
<polygon fill="black" stroke="black" points="140.44,-192.13 140.59,-181.53 133.86,-189.72 140.44,-192.13"/>
</g>
<!-- 2 -->
<g id="node3" class="node">
<title>2</title>
<polygon fill="none" stroke="black" points="86.88,-180 1.88,-180 1.88,-144 86.88,-144 86.88,-180"/>
<text text-anchor="middle" x="44.38" y="-155.82" font-family="Times New Roman,serif" font-size="14.00">本地编辑</text>
</g>
<!-- 1&#45;&gt;2 -->
<g id="edge3" class="edge">
<title>1&#45;&gt;2</title>
<path fill="none" stroke="black" d="M48.89,-215.7C48.27,-208.41 47.52,-199.73 46.82,-191.54"/>
<polygon fill="black" stroke="black" points="50.31,-191.28 45.97,-181.61 43.34,-191.87 50.31,-191.28"/>
</g>
<!-- 4 -->
<g id="node5" class="node">
<title>4</title>
<polygon fill="none" stroke="black" points="154.75,-108 36,-108 36,-72 154.75,-72 154.75,-108"/>
<text text-anchor="middle" x="95.38" y="-84.95" font-family="Times New Roman,serif" font-size="14.00">发起 Pull request</text>
</g>
<!-- 2&#45;&gt;4 -->
<g id="edge4" class="edge">
<title>2&#45;&gt;4</title>
<path fill="none" stroke="black" d="M56.98,-143.7C62.79,-135.73 69.8,-126.1 76.24,-117.26"/>
<polygon fill="black" stroke="black" points="78.96,-119.47 82.02,-109.33 73.3,-115.35 78.96,-119.47"/>
</g>
<!-- 3&#45;&gt;4 -->
<g id="edge5" class="edge">
<title>3&#45;&gt;4</title>
<path fill="none" stroke="black" d="M134.52,-143.7C128.6,-135.73 121.45,-126.1 114.89,-117.26"/>
<polygon fill="black" stroke="black" points="117.76,-115.26 108.98,-109.32 112.14,-119.43 117.76,-115.26"/>
</g>
<!-- 5 -->
<g id="node6" class="node">
<title>5</title>
<polygon fill="none" stroke="black" points="137.88,-36 52.88,-36 52.88,0 137.88,0 137.88,-36"/>
<text text-anchor="middle" x="95.38" y="-11.82" font-family="Times New Roman,serif" font-size="14.00">等待合并</text>
</g>
<!-- 4&#45;&gt;5 -->
<g id="edge6" class="edge">
<title>4&#45;&gt;5</title>
<path fill="none" stroke="black" d="M95.38,-71.7C95.38,-64.41 95.38,-55.73 95.38,-47.54"/>
<polygon fill="black" stroke="black" points="98.88,-47.62 95.38,-37.62 91.88,-47.62 98.88,-47.62"/>
</g>
</g>
</svg>
